<?xml version="1.0" standalone="no"?>
<!DOCTYPE svg PUBLIC "-//W3C//DTD SVG 20010904//EN"
 "http://www.w3.org/TR/2001/REC-SVG-20010904/DTD/svg10.dtd">
<svg version="1.0" xmlns="http://www.w3.org/2000/svg"
 width="28.000000pt" height="26.000000pt" viewBox="0 0 28.000000 26.000000"
 preserveAspectRatio="xMidYMid meet">

<g transform="translate(0.000000,26.000000) scale(0.100000,-0.100000)"
fill="#000000" stroke="none">
<path d="M103 180 c-29 -12 -46 -46 -39 -76 9 -34 47 -56 93 -52 35 3 38 6 41
36 2 18 -1 32 -7 32 -6 0 -11 -11 -11 -25 0 -22 -4 -25 -38 -25 -45 0 -62 14
-62 50 0 37 18 50 67 50 24 0 43 5 43 10 0 12 -57 12 -87 0z"/>
</g>
</svg>
